HIERARCHY
ROOT Hips
{
	OFFSET 0.000000 0.000000 0.000000 
	CHANNELS 6 Xposition Yposition Zposition Zrotation Yrotation Xrotation
	JOINT LeftUpLeg
	{
		OFFSET 1.363060 -1.794630 0.839290 
		CHANNELS 3 Zrotation Yrotation Xrotation
		JOINT LeftLeg
		{
			OFFSET 2.448110 -6.726130 0.000000 
			CHANNELS 3 Zrotation Yrotation Xrotation
			JOINT LeftFoot
			{
				OFFSET 2.562200 -7.039590 0.000000 
				CHANNELS 3 Zrotation Yrotation Xrotation
				JOINT LeftToeBase
				{
					OFFSET 0.157640 -0.433110 2.322550 
					CHANNELS 3 Zrotation Yrotation Xrotation
					End Site
					{
						OFFSET 0.000000 0.000000 0.000000 
					}
				}
			}
		}
	}
	JOINT RightUpLeg
	{
		OFFSET -1.305520 -1.794630 0.839290 
		CHANNELS 3 Zrotation Yrotation Xrotation
		JOINT RightLeg
		{
			OFFSET -2.542530 -6.985550 0.000000 
			CHANNELS 3 Zrotation Yrotation Xrotation
			JOINT RightFoot
			{
				OFFSET -2.568260 -7.056230 0.000000 
				CHANNELS 3 Zrotation Yrotation Xrotation
				JOINT RightToeBase
				{
					OFFSET -0.164730 -0.452590 2.363150 
					CHANNELS 3 Zrotation Yrotation Xrotation
					End Site
					{
						OFFSET 0.000000 0.000000 0.000000 
					}
				}
			}
		}
	}
	JOINT Spine
	{
		OFFSET 0.028270 2.035590 -0.193380 
		CHANNELS 3 Zrotation Yrotation Xrotation
		JOINT Spine1
		{
			OFFSET 0.056720 2.048850 -0.042750 
			CHANNELS 3 Zrotation Yrotation Xrotation
			JOINT Neck1
			{
				OFFSET -0.054170 1.746240 0.172020 
				CHANNELS 3 Zrotation Yrotation Xrotation
				JOINT Head
				{
					OFFSET 0.104070 1.761360 -0.123970 
					CHANNELS 3 Zrotation Yrotation Xrotation
					End Site
					{
						OFFSET 0.000000 0.000000 0.000000 
					}
				}
			}
			JOINT LeftArm
			{
				OFFSET 3.362410 1.200890 -0.311210 
				CHANNELS 3 Zrotation Yrotation Xrotation
				JOINT LeftForeArm
				{
					OFFSET 4.983000 -0.000000 -0.000000 
					CHANNELS 3 Zrotation Yrotation Xrotation
					JOINT LeftHand
					{
						OFFSET 3.483560 -0.000000 -0.000000 
						CHANNELS 3 Zrotation Yrotation Xrotation
						JOINT LeftHandIndex1
						{
							OFFSET 0.715260 -0.000000 -0.000000 
							CHANNELS 3 Zrotation Yrotation Xrotation
							End Site
							{
								OFFSET 0.000000 0.000000 0.000000 
							}
						}
					}
				}
			}
			JOINT RightArm
			{
				OFFSET -3.136600 1.374050 -0.404650 
				CHANNELS 3 Zrotation Yrotation Xrotation
				JOINT RightForeArm
				{
					OFFSET -5.241900 -0.000000 -0.000000 
					CHANNELS 3 Zrotation Yrotation Xrotation
					JOINT RightHand
					{
						OFFSET -3.444170 -0.000000 -0.000000 
						CHANNELS 3 Zrotation Yrotation Xrotation
						JOINT RightHandIndex1
						{
							OFFSET -0.622530 -0.000000 -0.000000 
							CHANNELS 3 Zrotation Yrotation Xrotation
							End Site
							{
								OFFSET 0.000000 0.000000 0.000000 
							}
						}
					}
				}
			}
		}
	}
}
MOTION
Frames: 6
Frame Time: 0.041667
8.927958 17.984797 -32.269890 -49.929367 -87.445733 56.495938 -0.596963 -7.763841 7.610544 -1.617944 1.199501 0.809967 -0.475149 5.513118 -14.178884 2.682400 10.162300 29.503900 15.224074 10.625158 14.746730 1.421688 -0.643887 -1.404243 2.560194 -22.868541 -25.896459 -0.000700 -0.170600 0.468700 -0.447935 0.894373 -6.513851 -7.974051 0.129776 0.528389 5.623780 -1.121478 9.672524 1.444000 -0.266200 2.549100 2.742136 1.278238 -6.317474 8.641880 -14.164869 -1.768207 0.162592 -0.420378 -7.870581 -7.125000 0.000000 0.000000 10.846877 -8.586115 -29.615905 -6.909968 11.001191 -2.840099 3.631778 4.748351 18.972266 7.125000 0.000000 0.000000 
8.929861 17.985899 -32.270591 -67.631614 -87.557150 74.282047 -0.306873 -7.456612 7.333854 -1.568442 1.302330 0.796621 -0.289516 4.876495 -13.850575 3.116600 10.881400 31.881000 15.534007 10.940436 14.935694 1.438209 -0.576942 -1.351422 2.522905 -22.844698 -26.282874 -0.000800 -0.184900 0.507900 0.096125 1.094356 -6.430579 -6.194732 0.396653 0.810008 5.032239 -1.099609 9.634377 1.267400 -0.276100 2.538900 1.573111 0.797122 -7.698430 8.370728 -13.903365 -1.721285 0.156646 -0.368127 -6.808414 -7.125000 0.000000 0.000000 9.475971 -8.788737 -29.319117 -6.895802 10.978777 -2.806765 3.584832 4.904640 18.387242 7.125000 0.000000 0.000000 
8.928559 17.985999 -32.270591 -68.708597 -87.630579 75.399525 -0.347488 -7.535645 7.331720 -1.575520 1.318493 0.803689 -0.306022 4.939531 -13.930683 3.080900 10.824900 31.691500 15.524509 10.984385 14.960722 1.435595 -0.560573 -1.373555 2.529599 -22.835889 -26.180903 -0.001700 -0.264900 0.727900 0.406977 1.050538 -6.366784 -5.103656 0.426513 1.044460 4.685606 -1.023524 9.618075 1.176200 -0.251500 2.536300 0.885296 0.566654 -8.824507 8.175967 -13.695960 -1.684428 0.163393 -0.358203 -6.071079 -7.125000 0.000000 0.000000 8.696786 -8.693513 -29.742173 -6.884496 10.929216 -2.781412 3.610201 4.944831 18.714945 7.125000 0.000000 0.000000 
8.926256 17.985598 -32.269289 -67.522762 -87.670732 74.226179 -0.452054 -7.686189 7.409433 -1.586783 1.313556 0.795179 -0.308401 4.967768 -14.072414 3.048300 10.772800 31.517400 15.411078 10.865703 14.918176 1.425415 -0.557124 -1.397230 2.519061 -22.711548 -25.965054 -0.003300 -0.369800 1.016000 0.463302 0.956633 -6.331557 -4.895409 0.388952 1.187899 4.606568 -0.949681 9.649291 1.151900 -0.215400 2.554400 0.785436 0.693749 -8.825590 8.159405 -13.676825 -1.681302 0.152016 -0.378471 -6.422010 -7.125000 0.000000 0.000000 8.557630 -8.433532 -30.269764 -6.860607 10.873984 -2.768444 3.657574 4.909625 19.232579 7.125000 0.000000 0.000000 
8.926256 17.987401 -32.270191 -70.684141 -87.739447 77.439272 -0.440268 -7.552994 7.293482 -1.590974 1.328706 0.791204 -0.395883 5.231117 -14.026702 2.935500 10.589900 30.909100 15.366954 10.916309 14.863031 1.436530 -0.551435 -1.362479 2.464167 -22.651367 -26.466920 -0.006500 -0.520200 1.429300 0.519752 0.982007 -6.309543 -4.652397 0.426596 1.299781 4.522837 -0.960206 9.701657 1.114200 -0.220900 2.579900 0.700736 0.740487 -8.412289 8.168190 -13.699570 -1.682386 0.127958 -0.380902 -7.032046 -7.125000 0.000000 0.000000 8.457203 -8.391805 -30.519055 -6.876362 10.874886 -2.765027 3.684470 4.882518 19.389052 7.125000 0.000000 0.000000 
8.926256 17.990004 -32.272594 -75.148906 -87.837455 81.993379 -0.383716 -7.402280 7.150515 -1.593022 1.352156 0.774852 -0.488829 5.514076 -13.988288 2.817500 10.393500 30.260700 15.405616 11.140854 14.850655 1.469503 -0.535441 -1.317267 2.306668 -22.535264 -27.916684 -0.027600 -1.072900 2.949300 0.909791 1.077578 -6.210158 -3.253886 0.541839 1.682237 4.260066 -1.009691 9.676287 1.078100 -0.261700 2.588200 -0.158022 0.286322 -9.323551 7.964182 -13.509345 -1.643708 0.117658 -0.333711 -6.329030 -7.125000 0.000000 0.000000 7.525833 -8.691486 -30.404763 -6.941957 10.947048 -2.752309 3.661035 4.971068 18.957314 7.125000 0.000000 0.000000 
